<?xml version="1.0" encoding="UTF-8"?>
<mxfile host="app.diagrams.net" modified="2025-06-03T16:30:00.000Z" agent="5.0" version="24.7.17" etag="YourETAG" type="device">
  <diagram name="Application Layering C4" id="applicationLayeringC4">
    <mxGraphModel dx="1422" dy="800" grid="1" gridSize="10" guides="1" tooltips="1" connect="1" arrows="1" fold="1" page="1" pageScale="1" pageWidth="1169" pageHeight="827" math="0" shadow="0">
      <root>
        <mxCell id="0" />
        <mxCell id="1" parent="0" />
        
        <!-- Title -->
        <mxCell id="title" value="Event Sourcing POC - Clean Architecture Layers" style="text;html=1;strokeColor=none;fillColor=none;align=center;verticalAlign=middle;whiteSpace=wrap;rounded=0;fontSize=24;fontStyle=1;" vertex="1" parent="1">
          <mxGeometry x="284" y="20" width="600" height="40" as="geometry" />
        </mxCell>
        
        <!-- External Client -->
        <mxCell id="client" value="External Client&lt;br/&gt;(HTTP Requests)" style="rounded=1;whiteSpace=wrap;html=1;fillColor=#f5f5f5;strokeColor=#666666;fontColor=#333333;fontSize=14;fontStyle=1;" vertex="1" parent="1">
          <mxGeometry x="440" y="80" width="120" height="60" as="geometry" />
        </mxCell>
        
        <!-- Presentation Layer (RED) -->
        <mxCell id="presentationLayer" value="" style="rounded=1;whiteSpace=wrap;html=1;fillColor=#ffcccc;strokeColor=#d79b00;strokeWidth=3;" vertex="1" parent="1">
          <mxGeometry x="200" y="180" width="600" height="150" as="geometry" />
        </mxCell>
        
        <mxCell id="presentationTitle" value="Presentation Layer" style="text;html=1;strokeColor=none;fillColor=none;align=left;verticalAlign=top;whiteSpace=wrap;rounded=0;fontSize=16;fontStyle=1;fontColor=#d79b00;" vertex="1" parent="1">
          <mxGeometry x="220" y="190" width="150" height="25" as="geometry" />
        </mxCell>
        
        <!-- API Controllers -->
        <mxCell id="userController" value="UserController&lt;br/&gt;(V1, V2)" style="rounded=1;whiteSpace=wrap;html=1;fillColor=#ffffff;strokeColor=#000000;" vertex="1" parent="1">
          <mxGeometry x="240" y="230" width="100" height="60" as="geometry" />
        </mxCell>
        
        <!-- DTOs -->
        <mxCell id="dtos" value="DTOs&lt;br/&gt;(Request/Response)" style="rounded=1;whiteSpace=wrap;html=1;fillColor=#ffffff;strokeColor=#000000;" vertex="1" parent="1">
          <mxGeometry x="370" y="230" width="120" height="60" as="geometry" />
        </mxCell>
        
        <!-- Mappers -->
        <mxCell id="mappers" value="Mappers&lt;br/&gt;(UserMapper)" style="rounded=1;whiteSpace=wrap;html=1;fillColor=#ffffff;strokeColor=#000000;" vertex="1" parent="1">
          <mxGeometry x="520" y="230" width="100" height="60" as="geometry" />
        </mxCell>
        
        <!-- Services -->
        <mxCell id="services" value="Services&lt;br/&gt;(UserService)" style="rounded=1;whiteSpace=wrap;html=1;fillColor=#ffffff;strokeColor=#000000;" vertex="1" parent="1">
          <mxGeometry x="650" y="230" width="100" height="60" as="geometry" />
        </mxCell>
        
        <!-- Application Layer (GREEN) -->
        <mxCell id="applicationLayer" value="" style="rounded=1;whiteSpace=wrap;html=1;fillColor=#d5e8d4;strokeColor=#82b366;strokeWidth=3;" vertex="1" parent="1">
          <mxGeometry x="200" y="360" width="600" height="100" as="geometry" />
        </mxCell>
        
        <mxCell id="applicationTitle" value="Application Layer" style="text;html=1;strokeColor=none;fillColor=none;align=left;verticalAlign=top;whiteSpace=wrap;rounded=0;fontSize=16;fontStyle=1;fontColor=#82b366;" vertex="1" parent="1">
          <mxGeometry x="220" y="370" width="150" height="25" as="geometry" />
        </mxCell>
        
        <!-- Application Services and Commands/Queries -->
        <mxCell id="commands" value="Commands&lt;br/&gt;(CreateUserCommand)" style="rounded=1;whiteSpace=wrap;html=1;fillColor=#ffffff;strokeColor=#000000;" vertex="1" parent="1">
          <mxGeometry x="240" y="400" width="140" height="50" as="geometry" />
        </mxCell>
        
        <mxCell id="queries" value="Queries&lt;br/&gt;(GetUserQuery)" style="rounded=1;whiteSpace=wrap;html=1;fillColor=#ffffff;strokeColor=#000000;" vertex="1" parent="1">
          <mxGeometry x="400" y="400" width="140" height="50" as="geometry" />
        </mxCell>
        
        <mxCell id="interfaces" value="Interfaces&lt;br/&gt;(IUserRepository)" style="rounded=1;whiteSpace=wrap;html=1;fillColor=#ffffff;strokeColor=#000000;" vertex="1" parent="1">
          <mxGeometry x="560" y="400" width="140" height="50" as="geometry" />
        </mxCell>
        
        <!-- Domain Layer (BLUE) -->
        <mxCell id="domainLayer" value="" style="rounded=1;whiteSpace=wrap;html=1;fillColor=#dae8fc;strokeColor=#6c8ebf;strokeWidth=3;" vertex="1" parent="1">
          <mxGeometry x="200" y="490" width="600" height="120" as="geometry" />
        </mxCell>
        
        <mxCell id="domainTitle" value="Domain Layer" style="text;html=1;strokeColor=none;fillColor=none;align=left;verticalAlign=top;whiteSpace=wrap;rounded=0;fontSize=16;fontStyle=1;fontColor=#6c8ebf;" vertex="1" parent="1">
          <mxGeometry x="220" y="500" width="150" height="25" as="geometry" />
        </mxCell>
        
        <!-- Domain Entities -->
        <mxCell id="entities" value="Entities&lt;br/&gt;(UserEntity, CartEntity)" style="rounded=1;whiteSpace=wrap;html=1;fillColor=#ffffff;strokeColor=#000000;" vertex="1" parent="1">
          <mxGeometry x="240" y="540" width="140" height="50" as="geometry" />
        </mxCell>
        
        <!-- Domain Events -->
        <mxCell id="events" value="Events&lt;br/&gt;(UserCreatedEvent)" style="rounded=1;whiteSpace=wrap;html=1;fillColor=#ffffff;strokeColor=#000000;" vertex="1" parent="1">
          <mxGeometry x="400" y="540" width="140" height="50" as="geometry" />
        </mxCell>
        
        <!-- Value Objects -->
        <mxCell id="valueObjects" value="Value Objects&lt;br/&gt;(EventTypes)" style="rounded=1;whiteSpace=wrap;html=1;fillColor=#ffffff;strokeColor=#000000;" vertex="1" parent="1">
          <mxGeometry x="560" y="540" width="140" height="50" as="geometry" />
        </mxCell>
        
        <!-- Infrastructure Layer (YELLOW) -->
        <mxCell id="infrastructureLayer" value="" style="rounded=1;whiteSpace=wrap;html=1;fillColor=#fff2cc;strokeColor=#d6b656;strokeWidth=3;" vertex="1" parent="1">
          <mxGeometry x="200" y="640" width="600" height="120" as="geometry" />
        </mxCell>
        
        <mxCell id="infrastructureTitle" value="Infrastructure Layer" style="text;html=1;strokeColor=none;fillColor=none;align=left;verticalAlign=top;whiteSpace=wrap;rounded=0;fontSize=16;fontStyle=1;fontColor=#d6b656;" vertex="1" parent="1">
          <mxGeometry x="220" y="650" width="150" height="25" as="geometry" />
        </mxCell>
        
        <!-- Repositories -->
        <mxCell id="repositories" value="Repositories&lt;br/&gt;(UserRepository)" style="rounded=1;whiteSpace=wrap;html=1;fillColor=#ffffff;strokeColor=#000000;" vertex="1" parent="1">
          <mxGeometry x="240" y="690" width="120" height="50" as="geometry" />
        </mxCell>
        
        <!-- Event Store -->
        <mxCell id="eventStore" value="Event Store&lt;br/&gt;(EventStore)" style="rounded=1;whiteSpace=wrap;html=1;fillColor=#ffffff;strokeColor=#000000;" vertex="1" parent="1">
          <mxGeometry x="380" y="690" width="120" height="50" as="geometry" />
        </mxCell>
        
        <!-- Data Access -->
        <mxCell id="dataAccess" value="Data Access&lt;br/&gt;(DbContext)" style="rounded=1;whiteSpace=wrap;html=1;fillColor=#ffffff;strokeColor=#000000;" vertex="1" parent="1">
          <mxGeometry x="520" y="690" width="120" height="50" as="geometry" />
        </mxCell>
        
        <!-- Helpers -->
        <mxCell id="helpers" value="Helpers&lt;br/&gt;(JSONDataSerializer)" style="rounded=1;whiteSpace=wrap;html=1;fillColor=#ffffff;strokeColor=#000000;" vertex="1" parent="1">
          <mxGeometry x="660" y="690" width="120" height="50" as="geometry" />
        </mxCell>
        
        <!-- Database -->
        <mxCell id="database" value="PostgreSQL&lt;br/&gt;Database" style="shape=cylinder3;whiteSpace=wrap;html=1;boundedLbl=1;backgroundOutline=1;size=15;fillColor=#f8cecc;strokeColor=#b85450;" vertex="1" parent="1">
          <mxGeometry x="440" y="780" width="120" height="60" as="geometry" />
        </mxCell>
        
        <!-- Arrows -->
        <!-- Client to Presentation -->
        <mxCell id="clientToPres" style="edgeStyle=orthogonalEdgeStyle;rounded=0;orthogonalLoop=1;jettySize=auto;html=1;entryX=0.5;entryY=0;entryDx=0;entryDy=0;strokeWidth=2;" edge="1" parent="1" source="client" target="presentationLayer">
          <mxGeometry relative="1" as="geometry" />
        </mxCell>
        
        <!-- Presentation to Application -->
        <mxCell id="prestoApp" style="edgeStyle=orthogonalEdgeStyle;rounded=0;orthogonalLoop=1;jettySize=auto;html=1;entryX=0.5;entryY=0;entryDx=0;entryDy=0;strokeWidth=2;" edge="1" parent="1" source="presentationLayer" target="applicationLayer">
          <mxGeometry relative="1" as="geometry" />
        </mxCell>
        
        <!-- Application to Domain -->
        <mxCell id="appToDomain" style="edgeStyle=orthogonalEdgeStyle;rounded=0;orthogonalLoop=1;jettySize=auto;html=1;entryX=0.5;entryY=0;entryDx=0;entryDy=0;strokeWidth=2;" edge="1" parent="1" source="applicationLayer" target="domainLayer">
          <mxGeometry relative="1" as="geometry" />
        </mxCell>
        
        <!-- Infrastructure to Domain -->
        <mxCell id="infraToDomain" style="edgeStyle=orthogonalEdgeStyle;rounded=0;orthogonalLoop=1;jettySize=auto;html=1;entryX=0.5;entryY=1;entryDx=0;entryDy=0;strokeWidth=2;" edge="1" parent="1" source="infrastructureLayer" target="domainLayer">
          <mxGeometry relative="1" as="geometry" />
        </mxCell>
        
        <!-- Infrastructure to Database -->
        <mxCell id="infraToDb" style="edgeStyle=orthogonalEdgeStyle;rounded=0;orthogonalLoop=1;jettySize=auto;html=1;entryX=0.5;entryY=0;entryDx=0;entryDy=0;entryPerimeter=0;strokeWidth=2;" edge="1" parent="1" source="infrastructureLayer" target="database">
          <mxGeometry relative="1" as="geometry" />
        </mxCell>
        
        <!-- Dependency Flow Labels -->
        <mxCell id="depLabel1" value="HTTP Requests" style="text;html=1;strokeColor=none;fillColor=none;align=center;verticalAlign=middle;whiteSpace=wrap;rounded=0;fontSize=10;" vertex="1" parent="1">
          <mxGeometry x="520" y="150" width="80" height="20" as="geometry" />
        </mxCell>
        
        <mxCell id="depLabel2" value="Service Calls" style="text;html=1;strokeColor=none;fillColor=none;align=center;verticalAlign=middle;whiteSpace=wrap;rounded=0;fontSize=10;" vertex="1" parent="1">
          <mxGeometry x="520" y="340" width="80" height="20" as="geometry" />
        </mxCell>
        
        <mxCell id="depLabel3" value="Domain Operations" style="text;html=1;strokeColor=none;fillColor=none;align=center;verticalAlign=middle;whiteSpace=wrap;rounded=0;fontSize=10;" vertex="1" parent="1">
          <mxGeometry x="520" y="470" width="80" height="20" as="geometry" />
        </mxCell>
        
        <mxCell id="depLabel4" value="Implements&lt;br/&gt;Interfaces" style="text;html=1;strokeColor=none;fillColor=none;align=center;verticalAlign=middle;whiteSpace=wrap;rounded=0;fontSize=10;" vertex="1" parent="1">
          <mxGeometry x="520" y="620" width="80" height="30" as="geometry" />
        </mxCell>
        
        <mxCell id="depLabel5" value="Data Persistence" style="text;html=1;strokeColor=none;fillColor=none;align=center;verticalAlign=middle;whiteSpace=wrap;rounded=0;fontSize=10;" vertex="1" parent="1">
          <mxGeometry x="520" y="760" width="80" height="20" as="geometry" />
        </mxCell>
        
        <!-- Legend -->
        <mxCell id="legend" value="" style="rounded=1;whiteSpace=wrap;html=1;fillColor=#f5f5f5;strokeColor=#666666;" vertex="1" parent="1">
          <mxGeometry x="850" y="180" width="280" height="200" as="geometry" />
        </mxCell>
        
        <mxCell id="legendTitle" value="Clean Architecture Layers" style="text;html=1;strokeColor=none;fillColor=none;align=center;verticalAlign=middle;whiteSpace=wrap;rounded=0;fontSize=14;fontStyle=1;" vertex="1" parent="1">
          <mxGeometry x="870" y="190" width="240" height="25" as="geometry" />
        </mxCell>
        
        <mxCell id="legendPres" value="■ Presentation Layer (API)" style="text;html=1;strokeColor=none;fillColor=none;align=left;verticalAlign=middle;whiteSpace=wrap;rounded=0;fontSize=12;fontColor=#d79b00;fontStyle=1;" vertex="1" parent="1">
          <mxGeometry x="870" y="220" width="200" height="20" as="geometry" />
        </mxCell>
        
        <mxCell id="legendApp" value="■ Application Layer (Services)" style="text;html=1;strokeColor=none;fillColor=none;align=left;verticalAlign=middle;whiteSpace=wrap;rounded=0;fontSize=12;fontColor=#82b366;fontStyle=1;" vertex="1" parent="1">
          <mxGeometry x="870" y="245" width="200" height="20" as="geometry" />
        </mxCell>
        
        <mxCell id="legendDomain" value="■ Domain Layer (Business Logic)" style="text;html=1;strokeColor=none;fillColor=none;align=left;verticalAlign=middle;whiteSpace=wrap;rounded=0;fontSize=12;fontColor=#6c8ebf;fontStyle=1;" vertex="1" parent="1">
          <mxGeometry x="870" y="270" width="200" height="20" as="geometry" />
        </mxCell>
        
        <mxCell id="legendInfra" value="■ Infrastructure Layer (Data Access)" style="text;html=1;strokeColor=none;fillColor=none;align=left;verticalAlign=middle;whiteSpace=wrap;rounded=0;fontSize=12;fontColor=#d6b656;fontStyle=1;" vertex="1" parent="1">
          <mxGeometry x="870" y="295" width="200" height="20" as="geometry" />
        </mxCell>
        
        <mxCell id="legendEventSourcing" value="Event Sourcing Pattern:" style="text;html=1;strokeColor=none;fillColor=none;align=left;verticalAlign=middle;whiteSpace=wrap;rounded=0;fontSize=12;fontStyle=1;" vertex="1" parent="1">
          <mxGeometry x="870" y="325" width="200" height="20" as="geometry" />
        </mxCell>
        
        <mxCell id="legendEvents" value="• Events are immutable" style="text;html=1;strokeColor=none;fillColor=none;align=left;verticalAlign=middle;whiteSpace=wrap;rounded=0;fontSize=10;" vertex="1" parent="1">
          <mxGeometry x="870" y="345" width="200" height="15" as="geometry" />
        </mxCell>
        
        <mxCell id="legendState" value="• State = f(events)" style="text;html=1;strokeColor=none;fillColor=none;align=left;verticalAlign=middle;whiteSpace=wrap;rounded=0;fontSize=10;" vertex="1" parent="1">
          <mxGeometry x="870" y="360" width="200" height="15" as="geometry" />
        </mxCell>
        
      </root>
    </mxGraphModel>
  </diagram>
</mxfile>
